<svg viewBox="0 0 1080 1080" fill="none" xmlns="http://www.w3.org/2000/svg">      <defs>  <filter id="filter" x="-20%" y="-20%" width="140%" height="140%" filterUnits="objectBoundingBox" primitiveUnits="userSpaceOnUse" color-interpolation-filters="linearRGB">    <feMorphology operator="dilate" radius="20 20" in="SourceAlpha" result="morphology"/>    <feFlood flood-color="#ffffff" flood-opacity="1" result="flood"/>    <feComposite in="flood" in2="morphology" operator="in" result="composite"/>    <feMerge result="merge">          <feMergeNode in="composite" result="mergeNode"/>      <feMergeNode in="SourceGraphic" result="mergeNode1"/>      </feMerge>  </filter></defs>      <g id="notion-avatar" filter="url(#filter)">        <g id="notion-avatar-face" fill="#ffffff" transform="scale(-1,1) translate(-1080, 0)">      <!--?xml version="1.0" encoding="UTF-8"?-->    <title>Face/ 9</title>    <g id="Face/-9" stroke="none" stroke-width="1" fill-rule="evenodd" stroke-linecap="round" stroke-linejoin="round">        <path d="M532,379 C664.54834,379 772,486.45166 772,619 C772,751.54834 704.54834,919 592,919 C506.683174,919 378.324367,822.776611 321.205121,718.475443 C318.188736,718.821948 315.115161,719 312,719 C267.81722,719 232,683.18278 232,639 C232,599.134956 261.158843,566.080325 299.312086,560.00055 C325.599297,455.979213 419.809919,379 532,379 Z M295.858895,624.545187 L304.141105,655.454813" id="Path" stroke="#000000" stroke-width="24"/>    </g>    </g><g id="notion-avatar-nose" transform="scale(-1,1) translate(-1080, 0)">      <!--?xml version="1.0" encoding="UTF-8"?-->    <title>Nose/ 3</title>    <g id="Nose/-3" stroke="none" stroke-width="1" fill="none" fill-rule="evenodd" stroke-linecap="round" stroke-linejoin="round">        <path d="M636.843465,595.910607 C654.994141,637.483681 663.279537,666.31686 661.699654,682.410144 C660.11977,698.503428 648.515798,703.474491 626.887739,697.323331" id="Line" stroke="#000000" stroke-width="16" transform="translate(644.388576, 647.892684) rotate(1.032339) translate(-644.388576, -647.892684) "/>    </g>    </g><g id="notion-avatar-mouth" transform="scale(-1,1) translate(-1080, 0)">      <!--?xml version="1.0" encoding="UTF-8"?-->    <title>Mouth/ 2</title>    <g id="Mouth/-2" stroke="none" stroke-width="1" fill="none" fill-rule="evenodd" stroke-linecap="round" stroke-linejoin="round">        <path d="M572,769 C585.775809,774.333333 599.109142,777 612,777 C624.890858,777 638.224191,774.333333 652,769" id="Path" stroke="#000000" stroke-width="16"/>    </g>    </g><g id="notion-avatar-eyes" transform="scale(-1,1) translate(-1080, 0)">      <!--?xml version="1.0" encoding="UTF-8"?-->    <title>Eyes/ 10</title>    <g id="Eyes/-10" stroke="none" stroke-width="1" fill="none" fill-rule="evenodd">        <g id="Group" transform="translate(520.000000, 512.000000)">            <g transform="translate(140.000000, 0.000000)">                <circle id="Oval" fill="#000000" cx="52" cy="28" r="24"/>                <path d="M1,16 C24.2727273,8 41.7272727,4 53.3636364,4 C65,4 79.5454545,8 97,16" id="Path" stroke="#000000" stroke-width="12" stroke-linecap="round" stroke-linejoin="round" transform="translate(49.000000, 10.000000) rotate(-4.000000) translate(-49.000000, -10.000000) "/>            </g>            <g>                <circle id="Oval" fill="#000000" transform="translate(46.000000, 28.000000) scale(-1, 1) translate(-46.000000, -28.000000) " cx="46" cy="28" r="24"/>                <path d="M1,16 C24.2727273,8 41.7272727,4 53.3636364,4 C65,4 79.5454545,8 97,16" id="Path" stroke="#000000" stroke-width="12" stroke-linecap="round" stroke-linejoin="round" transform="translate(49.000000, 10.000000) scale(-1, 1) rotate(-4.000000) translate(-49.000000, -10.000000) "/>            </g>        </g>    </g>    </g><g id="notion-avatar-eyebrows" transform="scale(-1,1) translate(-1080, 0)">      <g id="Eyebrows/ 11"><g id="Group"><path id="Path" fill-rule="evenodd" clip-rule="evenodd" d="M682.541 491.005C682.541 491.005 728.644 489.216 741.813 495.149C754.982 501.082 753.21 511.484 753.21 511.484C753.21 511.484 746.419 503.992 737.34 499.348C728.26 494.703 682.541 491.005 682.541 491.005Z" fill="black" stroke="black" stroke-width="8" stroke-linecap="round" stroke-linejoin="round"/><path id="Path_2" fill-rule="evenodd" clip-rule="evenodd" d="M595.459 491.005C595.459 491.005 549.356 489.216 536.187 495.149C523.018 501.082 524.79 511.484 524.79 511.484C524.79 511.484 531.581 503.992 540.66 499.348C549.74 494.703 595.459 491.005 595.459 491.005Z" fill="black" stroke="black" stroke-width="8" stroke-linecap="round" stroke-linejoin="round"/></g></g>    </g><g id="notion-avatar-glasses" transform="scale(-1,1) translate(-1080, 0)">      <!--?xml version="1.0" encoding="UTF-8"?-->    <title>Glasses/ 1</title>    <g id="Glasses/-1" stroke="none" stroke-width="1" fill="none" fill-rule="evenodd" stroke-linecap="round" stroke-linejoin="round">        <g id="Group" transform="translate(293.311103, 479.000000)" stroke="#000000" stroke-width="16">            <circle id="Oval" cx="272.688897" cy="60" r="60"/>            <circle id="Oval" cx="416.688897" cy="60" r="60"/>            <path d="M368.688897,13 C360.688897,7.66666667 352.688897,5 344.688897,5 C336.688897,5 328.688897,7.66666667 320.688897,13" id="Path"/>            <line x1="216.688897" y1="36" x2="1" y2="79.3393577" id="Path" transform="translate(108.844448, 57.669679) rotate(1.361411) translate(-108.844448, -57.669679) "/>        </g>    </g>    </g><g id="notion-avatar-hair" transform="scale(-1,1) translate(-1080, 0)">      <!--?xml version="1.0" encoding="UTF-8"?-->    <title>Hairstyle/ 11</title>    <g id="Hairstyle/-11" stroke="none" stroke-width="1" fill="none" fill-rule="evenodd" stroke-linecap="round" stroke-linejoin="round">        <path d="M287.145773,564.824988 L328.116663,564.824988 L366,655 C368,609 370.666667,578.666667 374,564 C377.333333,549.333333 386,536 400,524 C404.686858,511.205454 408.020191,498.538788 410,486 C411.979809,473.461212 412.646475,460.794546 412,448 C431.277968,442.027683 448.944635,435.027683 465,427 C481.055365,418.972317 496.055365,409.638984 510,399 C541.018923,414.567133 564.018923,423.900467 579,427 C598.333333,431 625.666667,431 661,427 C677,435 690.333333,444.666667 701,456 C711.666667,467.333333 719.333333,477 724,485 C739.337022,483.068501 749.003689,474.068501 753,458 C758.994467,433.897248 749.308457,421.45399 753,385 C755.461029,360.69734 761.794362,334.364006 772,306 C756.671455,311.760083 745.671455,315.093417 739,316 C713.953321,319.403591 695.432317,316 684,316 C636.89228,316 645,282 615,272 C595,265.333333 574.900668,265.39119 554.702003,272.17357 C537.058392,259.349997 518.824391,250.958807 500,247 C481.175609,243.041193 457.508942,242.041193 429,244 C432.618992,252.559514 429.952325,263.892847 421,278 C407.571512,299.160729 404,300 392,311 C380,322 362,318 347,335 C337,346.333333 333,359.666667 335,375 C327.529566,375.74088 320.196232,377.74088 313,381 C305.803768,384.25912 299.470434,389.592453 294,397 C316.094259,401.247038 325.477218,404.098045 322.148877,405.553022 C298.10323,416.064523 271.638366,440.518688 265,458 C256.983334,479.110894 264.365258,514.719224 287.145773,564.824988 Z" id="Path" stroke="#000000" stroke-width="12" fill="#000000"/>    </g>    </g><g id="notion-avatar-accessories" transform="scale(-1,1) translate(-1080, 0)">      <!--?xml version="1.0" encoding="UTF-8"?-->    <title>Accessories/ 0</title>    <g id="Accessories/-0" stroke="none" stroke-width="1" fill="none" fill-rule="evenodd"/>    </g><g id="notion-avatar-details" transform="scale(-1,1) translate(-1080, 0)">      <!--?xml version="1.0" encoding="UTF-8"?-->    <title>Details/ 0</title>    <g id="Details/-0" stroke="none" stroke-width="1" fill="none" fill-rule="evenodd"/>    </g><g id="notion-avatar-beard" transform="scale(-1,1) translate(-1080, 0)">      <!--?xml version="1.0" encoding="UTF-8"?-->    <title>Beard/ 0</title>    <g id="Beard/-0" stroke="none" stroke-width="1" fill="none" fill-rule="evenodd"/>    </g>      </g>      </svg>